<svg width="1200" height="350" viewBox="0 0 1200 350" fill="none" xmlns="http://www.w3.org/2000/svg">
<path d="M1200 343.706H1093.72V262.486H995.516L996.861 197.244H994.17V193.25C999.413 191.958 1001.23 189.207 1003.59 182.598C1005.38 178.322 1007.93 176.883 1013 174.609H1004.93L1003.59 143.985H998.206C992.859 135.944 990.39 138.32 986.099 143.985H980.718L978.027 174.609H968.61C974.818 177.369 978.001 178.979 979.372 182.598C982.287 188.783 984.457 190.878 988.789 193.25V197.244H986.099V262.486H933.632L817.937 50.7824L826.009 40.1307L821.973 42.7936L813.901 41.4621L826.009 28.1474L801.794 44.1251L715.695 25.4845L733.184 1.51807L707.623 21.4901L698.206 14.8328L683.408 25.4845L778.924 270.475H762.78L742.601 241.182L722.422 270.475H691.48L676.682 257.16L663.229 267.812C657.848 198.575 643.049 245.177 643.049 267.812H609.417L597.309 130.671L581.166 273.138L573.094 266.48L567.713 269.143H536.771L526.009 242.514L516.592 267.812H489.686L566.368 62.7656L495.067 25.4845L504.484 42.7936L519.283 41.4621L535.426 53.4454L427.803 32.1418L422.422 26.816L427.803 20.1586L414.35 14.8328L407.623 16.1642L382.063 4.181L422.422 34.8048L318.834 253.166L281.166 254.497V197.244H278.475V194.581H279.821V187.924C283.411 186.919 284.89 185.98 286.547 181.266C290.02 174.205 292.962 172.521 298.655 170.615L290.583 167.952L287.892 139.991C282.245 138.872 280.408 136.872 277.13 133.333C273.015 137.738 270.643 138.872 266.368 139.991L262.332 167.952L254.26 170.615C263.166 173.363 265.385 176.005 267.713 181.266C269.008 186.121 270.5 186.706 273.094 187.924V194.581H274.44V197.244H271.749V257.16H259.641L246.188 267.812H193.722V348.776H0" stroke="#084887" stroke-width="1.40625"/>
</svg>
