<svg width="1188" height="168" viewBox="0 0 1188 168" fill="none" xmlns="http://www.w3.org/2000/svg">
<path d="M1188 164.576H821.164V125.751H774.188L774.832 94.563H773.545V92.6535C776.053 92.0361 776.919 90.721 778.049 87.5617C778.906 85.5177 780.127 84.8297 782.554 83.7428H778.693L778.049 69.1037H775.475C772.918 65.2597 771.736 66.3953 769.684 69.1037H767.11L765.823 83.7428H761.318C764.288 85.0623 765.81 85.8318 766.466 87.5617C767.861 90.5184 768.899 91.5199 770.971 92.6535V94.563H769.684V125.751H744.587L689.247 24.5499L693.108 19.458L691.177 20.731L687.316 20.0945L693.108 13.7297L681.525 21.3675L640.341 12.4567L648.706 1L636.48 10.5472L631.975 7.36483L624.897 12.4567L670.585 129.57H662.863L653.211 115.567L643.558 129.57H628.758L621.679 123.205L615.244 128.297C612.67 95.1995 605.592 117.476 605.592 128.297H589.505L583.713 62.7388L575.991 130.843L572.13 127.66L569.556 128.933H554.756L549.608 116.203L545.103 128.297H532.233L568.913 30.2782L534.807 12.4567L539.312 20.731L546.39 20.0945L554.112 25.8228L502.632 15.6391L500.058 13.0932L502.632 9.91076L496.197 7.36483L492.98 8.00131L480.753 2.27297L500.058 16.9121L450.509 121.295L432.491 121.932V94.563H431.204V93.29H431.848V90.1076C433.565 89.6275 434.272 89.1786 435.065 86.9252C436.726 83.5496 438.133 82.7447 440.857 81.8333L436.996 80.5604L435.709 67.1942C433.007 66.6596 432.129 65.7033 430.561 64.0118C428.592 66.1171 427.457 66.6596 425.413 67.1942L423.482 80.5604L419.621 81.8333C423.881 83.147 424.942 84.4103 426.056 86.9252C426.675 89.2461 427.389 89.5257 428.63 90.1076V93.29H429.274V94.563H427.987V123.205H422.195L415.76 128.297H390.664V167H-28" stroke="#084887" stroke-width="1.40625"/>
</svg>
