<svg width="1120" height="53" viewBox="0 0 1120 53" fill="none" xmlns="http://www.w3.org/2000/svg">
<path d="M0.333333 27C0.333333 28.4728 1.52724 29.6667 3 29.6667C4.47276 29.6667 5.66667 28.4728 5.66667 27C5.66667 25.5272 4.47276 24.3333 3 24.3333C1.52724 24.3333 0.333333 25.5272 0.333333 27ZM1120 27L1115 24.1132V29.8868L1120 27ZM3 27.5H1115.5V26.5H3V27.5Z" fill="#084887"/>
<rect x="83.5" y="0.5" width="53" height="52" rx="26" fill="white"/>
<rect x="83.5" y="0.5" width="53" height="52" rx="26" stroke="#084887"/>
<path d="M108.852 32.5V22.26L109.972 23.38H106.612V21.3H111.444V32.5H108.852Z" fill="#084887"/>
<rect x="297.5" y="0.5" width="53" height="52" rx="26" fill="white"/>
<rect x="297.5" y="0.5" width="53" height="52" rx="26" stroke="#084887"/>
<path d="M319.528 32.5V30.82L323.848 26.74C324.189 26.4307 324.44 26.1533 324.6 25.908C324.76 25.6627 324.867 25.4387 324.92 25.236C324.984 25.0333 325.016 24.8467 325.016 24.676C325.016 24.228 324.861 23.8867 324.552 23.652C324.253 23.4067 323.811 23.284 323.224 23.284C322.755 23.284 322.317 23.3747 321.912 23.556C321.517 23.7373 321.181 24.02 320.904 24.404L319.016 23.188C319.443 22.548 320.04 22.0413 320.808 21.668C321.576 21.2947 322.461 21.108 323.464 21.108C324.296 21.108 325.021 21.2467 325.64 21.524C326.269 21.7907 326.755 22.1693 327.096 22.66C327.448 23.1507 327.624 23.7373 327.624 24.42C327.624 24.7827 327.576 25.1453 327.48 25.508C327.395 25.86 327.213 26.2333 326.936 26.628C326.669 27.0227 326.275 27.4653 325.752 27.956L322.168 31.332L321.672 30.388H327.992V32.5H319.528Z" fill="#084887"/>
<rect x="507.5" y="0.5" width="53" height="52" rx="26" fill="#084887"/>
<rect x="507.5" y="0.5" width="53" height="52" rx="26" stroke="#084887"/>
<path d="M533.256 32.692C532.477 32.692 531.704 32.5907 530.936 32.388C530.168 32.1747 529.517 31.876 528.984 31.492L529.992 29.508C530.419 29.8173 530.915 30.0627 531.48 30.244C532.045 30.4253 532.616 30.516 533.192 30.516C533.843 30.516 534.355 30.388 534.728 30.132C535.101 29.876 535.288 29.524 535.288 29.076C535.288 28.6493 535.123 28.3133 534.792 28.068C534.461 27.8227 533.928 27.7 533.192 27.7H532.008V25.988L535.128 22.452L535.416 23.38H529.544V21.3H537.384V22.98L534.28 26.516L532.968 25.764H533.72C535.096 25.764 536.136 26.0733 536.84 26.692C537.544 27.3107 537.896 28.1053 537.896 29.076C537.896 29.7053 537.731 30.2973 537.4 30.852C537.069 31.396 536.563 31.8387 535.88 32.18C535.197 32.5213 534.323 32.692 533.256 32.692Z" fill="white"/>
<rect x="747.5" y="0.5" width="53" height="52" rx="26" fill="white"/>
<rect x="747.5" y="0.5" width="53" height="52" rx="26" stroke="#084887"/>
<path d="M768.496 30.148V28.404L773.776 21.3H776.496L771.328 28.404L770.064 28.036H778.88V30.148H768.496ZM774.528 32.5V30.148L774.608 28.036V25.94H777.056V32.5H774.528Z" fill="#084887"/>
<rect x="937.5" y="0.5" width="53" height="52" rx="26" fill="white"/>
<rect x="937.5" y="0.5" width="53" height="52" rx="26" stroke="#084887"/>
<path d="M963.432 32.692C962.653 32.692 961.88 32.5907 961.112 32.388C960.355 32.1747 959.704 31.876 959.16 31.492L960.184 29.508C960.611 29.8173 961.101 30.0627 961.656 30.244C962.221 30.4253 962.792 30.516 963.368 30.516C964.019 30.516 964.531 30.388 964.904 30.132C965.277 29.876 965.464 29.5187 965.464 29.06C965.464 28.772 965.389 28.516 965.24 28.292C965.091 28.068 964.824 27.8973 964.44 27.78C964.067 27.6627 963.539 27.604 962.856 27.604H959.992L960.568 21.3H967.4V23.38H961.496L962.84 22.196L962.44 26.692L961.096 25.508H963.464C964.573 25.508 965.464 25.6627 966.136 25.972C966.819 26.2707 967.315 26.6813 967.624 27.204C967.933 27.7267 968.088 28.3187 968.088 28.98C968.088 29.6413 967.923 30.2547 967.592 30.82C967.261 31.3747 966.749 31.828 966.056 32.18C965.373 32.5213 964.499 32.692 963.432 32.692Z" fill="#084887"/>
</svg>
