<svg width="27" height="573" viewBox="0 0 27 573" fill="none" xmlns="http://www.w3.org/2000/svg">
<path d="M13.2461 0.333333C11.7733 0.333333 10.5794 1.52724 10.5794 3C10.5794 4.47276 11.7733 5.66667 13.2461 5.66667C14.7189 5.66667 15.9128 4.47276 15.9128 3C15.9128 1.52724 14.7189 0.333333 13.2461 0.333333ZM13.2461 573L16.1328 568H10.3593L13.2461 573ZM12.7461 3L12.7461 568.5H13.7461L13.7461 3H12.7461Z" fill="#084887"/>
<rect x="26.5" y="43.2676" width="26.5313" height="26" rx="13" transform="rotate(90 26.5 43.2676)" fill="#084887"/>
<rect x="26.5" y="43.2676" width="26.5313" height="26" rx="13" transform="rotate(90 26.5 43.2676)" stroke="#084887"/>
<path d="M12.352 62.5332L12.352 52.2932L13.472 53.4132H10.112V51.3332H14.944L14.944 62.5332H12.352Z" fill="white"/>
<rect x="26.5" y="152.373" width="26.5313" height="26" rx="13" transform="rotate(90 26.5 152.373)" fill="white"/>
<rect x="26.5" y="152.373" width="26.5313" height="26" rx="13" transform="rotate(90 26.5 152.373)" stroke="#084887"/>
<path d="M9.028 171.639V169.959L13.348 165.879C13.6893 165.569 13.94 165.292 14.1 165.047C14.26 164.801 14.3667 164.577 14.42 164.375C14.484 164.172 14.516 163.985 14.516 163.815C14.516 163.367 14.3613 163.025 14.052 162.791C13.7533 162.545 13.3107 162.423 12.724 162.423C12.2547 162.423 11.8173 162.513 11.412 162.695C11.0173 162.876 10.6813 163.159 10.404 163.543L8.516 162.327C8.94267 161.687 9.54 161.18 10.308 160.807C11.076 160.433 11.9613 160.247 12.964 160.247C13.796 160.247 14.5213 160.385 15.14 160.663C15.7693 160.929 16.2547 161.308 16.596 161.799C16.948 162.289 17.124 162.876 17.124 163.559C17.124 163.921 17.076 164.284 16.98 164.647C16.8947 164.999 16.7133 165.372 16.436 165.767C16.1693 166.161 15.7747 166.604 15.252 167.095L11.668 170.471L11.172 169.527H17.492V171.639H9.028Z" fill="#084887"/>
<rect x="26.5" y="259.439" width="26.5313" height="26" rx="13" transform="rotate(90 26.5 259.439)" fill="white"/>
<rect x="26.5" y="259.439" width="26.5313" height="26" rx="13" transform="rotate(90 26.5 259.439)" stroke="#084887"/>
<path d="M12.756 278.897C11.9773 278.897 11.204 278.796 10.436 278.593C9.668 278.38 9.01733 278.081 8.484 277.697L9.492 275.713C9.91867 276.022 10.4147 276.268 10.98 276.449C11.5453 276.63 12.116 276.721 12.692 276.721C13.3427 276.721 13.8547 276.593 14.228 276.337C14.6013 276.081 14.788 275.729 14.788 275.281C14.788 274.854 14.6227 274.518 14.292 274.273C13.9613 274.028 13.428 273.905 12.692 273.905H11.508V272.193L14.628 268.657L14.916 269.585H9.044V267.505H16.884V269.185L13.78 272.721L12.468 271.969H13.22C14.596 271.969 15.636 272.278 16.34 272.897C17.044 273.516 17.396 274.31 17.396 275.281C17.396 275.91 17.2307 276.502 16.9 277.057C16.5693 277.601 16.0627 278.044 15.38 278.385C14.6973 278.726 13.8227 278.897 12.756 278.897Z" fill="#084887"/>
<rect x="26.5" y="381.801" width="26.5313" height="26" rx="13" transform="rotate(90 26.5 381.801)" fill="white"/>
<rect x="26.5" y="381.801" width="26.5313" height="26" rx="13" transform="rotate(90 26.5 381.801)" stroke="#084887"/>
<path d="M7.996 398.714V396.97L13.276 389.866H15.996L10.828 396.97L9.564 396.602H18.38L18.38 398.714H7.996ZM14.028 401.066V398.714L14.108 396.602L14.108 394.506H16.556L16.556 401.066H14.028Z" fill="#084887"/>
<rect x="26.5" y="478.67" width="26.5313" height="26" rx="13" transform="rotate(90 26.5 478.67)" fill="white"/>
<rect x="26.5" y="478.67" width="26.5313" height="26" rx="13" transform="rotate(90 26.5 478.67)" stroke="#084887"/>
<path d="M12.932 498.128C12.1533 498.128 11.38 498.026 10.612 497.824C9.85467 497.61 9.204 497.312 8.66 496.928L9.684 494.944C10.1107 495.253 10.6013 495.498 11.156 495.68C11.7213 495.861 12.292 495.952 12.868 495.952C13.5187 495.952 14.0307 495.824 14.404 495.568C14.7773 495.312 14.964 494.954 14.964 494.496C14.964 494.208 14.8893 493.952 14.74 493.728C14.5907 493.504 14.324 493.333 13.94 493.216C13.5667 493.098 13.0387 493.04 12.356 493.04H9.492L10.068 486.736H16.9V488.816H10.996L12.34 487.632L11.94 492.128L10.596 490.944H12.964C14.0733 490.944 14.964 491.098 15.636 491.408C16.3187 491.706 16.8147 492.117 17.124 492.64C17.4333 493.162 17.588 493.754 17.588 494.416C17.588 495.077 17.4227 495.69 17.092 496.256C16.7613 496.81 16.2493 497.264 15.556 497.616C14.8733 497.957 13.9987 498.128 12.932 498.128Z" fill="#084887"/>
</svg>
