<svg width="1121" height="53" viewBox="0 0 1121 53" fill="none" xmlns="http://www.w3.org/2000/svg">
<path d="M0.333333 27C0.333333 28.4728 1.52724 29.6667 3 29.6667C4.47276 29.6667 5.66667 28.4728 5.66667 27C5.66667 25.5272 4.47276 24.3333 3 24.3333C1.52724 24.3333 0.333333 25.5272 0.333333 27ZM1121 27L1116 24.1132V29.8868L1121 27ZM3 27.5H1116.5V26.5H3V27.5Z" fill="#084887"/>
<rect x="81.5" y="0.5" width="53" height="52" rx="26" fill="#084887"/>
<rect x="81.5" y="0.5" width="53" height="52" rx="26" stroke="#084887"/>
<path d="M106.852 32.5V22.26L107.972 23.38H104.612V21.3H109.444V32.5H106.852Z" fill="white"/>
<rect x="295.5" y="0.5" width="53" height="52" rx="26" fill="white"/>
<rect x="295.5" y="0.5" width="53" height="52" rx="26" stroke="#084887"/>
<path d="M317.528 32.5V30.82L321.848 26.74C322.189 26.4307 322.44 26.1533 322.6 25.908C322.76 25.6627 322.867 25.4387 322.92 25.236C322.984 25.0333 323.016 24.8467 323.016 24.676C323.016 24.228 322.861 23.8867 322.552 23.652C322.253 23.4067 321.811 23.284 321.224 23.284C320.755 23.284 320.317 23.3747 319.912 23.556C319.517 23.7373 319.181 24.02 318.904 24.404L317.016 23.188C317.443 22.548 318.04 22.0413 318.808 21.668C319.576 21.2947 320.461 21.108 321.464 21.108C322.296 21.108 323.021 21.2467 323.64 21.524C324.269 21.7907 324.755 22.1693 325.096 22.66C325.448 23.1507 325.624 23.7373 325.624 24.42C325.624 24.7827 325.576 25.1453 325.48 25.508C325.395 25.86 325.213 26.2333 324.936 26.628C324.669 27.0227 324.275 27.4653 323.752 27.956L320.168 31.332L319.672 30.388H325.992V32.5H317.528Z" fill="#084887"/>
<rect x="505.5" y="0.5" width="53" height="52" rx="26" fill="white"/>
<rect x="505.5" y="0.5" width="53" height="52" rx="26" stroke="#084887"/>
<path d="M531.256 32.692C530.477 32.692 529.704 32.5907 528.936 32.388C528.168 32.1747 527.517 31.876 526.984 31.492L527.992 29.508C528.419 29.8173 528.915 30.0627 529.48 30.244C530.045 30.4253 530.616 30.516 531.192 30.516C531.843 30.516 532.355 30.388 532.728 30.132C533.101 29.876 533.288 29.524 533.288 29.076C533.288 28.6493 533.123 28.3133 532.792 28.068C532.461 27.8227 531.928 27.7 531.192 27.7H530.008V25.988L533.128 22.452L533.416 23.38H527.544V21.3H535.384V22.98L532.28 26.516L530.968 25.764H531.72C533.096 25.764 534.136 26.0733 534.84 26.692C535.544 27.3107 535.896 28.1053 535.896 29.076C535.896 29.7053 535.731 30.2973 535.4 30.852C535.069 31.396 534.563 31.8387 533.88 32.18C533.197 32.5213 532.323 32.692 531.256 32.692Z" fill="#084887"/>
<rect x="745.5" y="0.5" width="53" height="52" rx="26" fill="white"/>
<rect x="745.5" y="0.5" width="53" height="52" rx="26" stroke="#084887"/>
<path d="M766.496 30.148V28.404L771.776 21.3H774.496L769.328 28.404L768.064 28.036H776.88V30.148H766.496ZM772.528 32.5V30.148L772.608 28.036V25.94H775.056V32.5H772.528Z" fill="#084887"/>
<rect x="935.5" y="0.5" width="53" height="52" rx="26" fill="white"/>
<rect x="935.5" y="0.5" width="53" height="52" rx="26" stroke="#084887"/>
<path d="M961.432 32.692C960.653 32.692 959.88 32.5907 959.112 32.388C958.355 32.1747 957.704 31.876 957.16 31.492L958.184 29.508C958.611 29.8173 959.101 30.0627 959.656 30.244C960.221 30.4253 960.792 30.516 961.368 30.516C962.019 30.516 962.531 30.388 962.904 30.132C963.277 29.876 963.464 29.5187 963.464 29.06C963.464 28.772 963.389 28.516 963.24 28.292C963.091 28.068 962.824 27.8973 962.44 27.78C962.067 27.6627 961.539 27.604 960.856 27.604H957.992L958.568 21.3H965.4V23.38H959.496L960.84 22.196L960.44 26.692L959.096 25.508H961.464C962.573 25.508 963.464 25.6627 964.136 25.972C964.819 26.2707 965.315 26.6813 965.624 27.204C965.933 27.7267 966.088 28.3187 966.088 28.98C966.088 29.6413 965.923 30.2547 965.592 30.82C965.261 31.3747 964.749 31.828 964.056 32.18C963.373 32.5213 962.499 32.692 961.432 32.692Z" fill="#084887"/>
</svg>
