<svg width="1120" height="53" viewBox="0 0 1120 53" fill="none" xmlns="http://www.w3.org/2000/svg">
<path d="M0.333333 27C0.333333 28.4728 1.52724 29.6667 3 29.6667C4.47276 29.6667 5.66667 28.4728 5.66667 27C5.66667 25.5272 4.47276 24.3333 3 24.3333C1.52724 24.3333 0.333333 25.5272 0.333333 27ZM1120 27L1115 24.1132V29.8868L1120 27ZM3 27.5H1115.5V26.5H3V27.5Z" fill="#084887"/>
<rect x="83.5" y="0.5" width="53" height="52" rx="26" fill="white"/>
<rect x="83.5" y="0.5" width="53" height="52" rx="26" stroke="#084887"/>
<path d="M108.852 32.5V22.26L109.972 23.38H106.612V21.3H111.444V32.5H108.852Z" fill="#084887"/>
<rect x="298.5" y="0.5" width="53" height="52" rx="26" fill="white"/>
<rect x="298.5" y="0.5" width="53" height="52" rx="26" stroke="#084887"/>
<path d="M320.528 32.5V30.82L324.848 26.74C325.189 26.4307 325.44 26.1533 325.6 25.908C325.76 25.6627 325.867 25.4387 325.92 25.236C325.984 25.0333 326.016 24.8467 326.016 24.676C326.016 24.228 325.861 23.8867 325.552 23.652C325.253 23.4067 324.811 23.284 324.224 23.284C323.755 23.284 323.317 23.3747 322.912 23.556C322.517 23.7373 322.181 24.02 321.904 24.404L320.016 23.188C320.443 22.548 321.04 22.0413 321.808 21.668C322.576 21.2947 323.461 21.108 324.464 21.108C325.296 21.108 326.021 21.2467 326.64 21.524C327.269 21.7907 327.755 22.1693 328.096 22.66C328.448 23.1507 328.624 23.7373 328.624 24.42C328.624 24.7827 328.576 25.1453 328.48 25.508C328.395 25.86 328.213 26.2333 327.936 26.628C327.669 27.0227 327.275 27.4653 326.752 27.956L323.168 31.332L322.672 30.388H328.992V32.5H320.528Z" fill="#084887"/>
<rect x="508.5" y="0.5" width="53" height="52" rx="26" fill="white"/>
<rect x="508.5" y="0.5" width="53" height="52" rx="26" stroke="#084887"/>
<path d="M534.256 32.692C533.477 32.692 532.704 32.5907 531.936 32.388C531.168 32.1747 530.517 31.876 529.984 31.492L530.992 29.508C531.419 29.8173 531.915 30.0627 532.48 30.244C533.045 30.4253 533.616 30.516 534.192 30.516C534.843 30.516 535.355 30.388 535.728 30.132C536.101 29.876 536.288 29.524 536.288 29.076C536.288 28.6493 536.123 28.3133 535.792 28.068C535.461 27.8227 534.928 27.7 534.192 27.7H533.008V25.988L536.128 22.452L536.416 23.38H530.544V21.3H538.384V22.98L535.28 26.516L533.968 25.764H534.72C536.096 25.764 537.136 26.0733 537.84 26.692C538.544 27.3107 538.896 28.1053 538.896 29.076C538.896 29.7053 538.731 30.2973 538.4 30.852C538.069 31.396 537.563 31.8387 536.88 32.18C536.197 32.5213 535.323 32.692 534.256 32.692Z" fill="#084887"/>
<rect x="748.5" y="0.5" width="53" height="52" rx="26" fill="#084887"/>
<rect x="748.5" y="0.5" width="53" height="52" rx="26" stroke="#084887"/>
<path d="M769.496 30.148V28.404L774.776 21.3H777.496L772.328 28.404L771.064 28.036H779.88V30.148H769.496ZM775.528 32.5V30.148L775.608 28.036V25.94H778.056V32.5H775.528Z" fill="white"/>
<rect x="938.5" y="0.5" width="53" height="52" rx="26" fill="white"/>
<rect x="938.5" y="0.5" width="53" height="52" rx="26" stroke="#084887"/>
<path d="M964.432 32.692C963.653 32.692 962.88 32.5907 962.112 32.388C961.355 32.1747 960.704 31.876 960.16 31.492L961.184 29.508C961.611 29.8173 962.101 30.0627 962.656 30.244C963.221 30.4253 963.792 30.516 964.368 30.516C965.019 30.516 965.531 30.388 965.904 30.132C966.277 29.876 966.464 29.5187 966.464 29.06C966.464 28.772 966.389 28.516 966.24 28.292C966.091 28.068 965.824 27.8973 965.44 27.78C965.067 27.6627 964.539 27.604 963.856 27.604H960.992L961.568 21.3H968.4V23.38H962.496L963.84 22.196L963.44 26.692L962.096 25.508H964.464C965.573 25.508 966.464 25.6627 967.136 25.972C967.819 26.2707 968.315 26.6813 968.624 27.204C968.933 27.7267 969.088 28.3187 969.088 28.98C969.088 29.6413 968.923 30.2547 968.592 30.82C968.261 31.3747 967.749 31.828 967.056 32.18C966.373 32.5213 965.499 32.692 964.432 32.692Z" fill="#084887"/>
</svg>
