<svg width="1200" height="2257" viewBox="0 0 1200 2257" fill="none" xmlns="http://www.w3.org/2000/svg">
<g clip-path="url(#clip0_139_2344)">
<rect width="1200" height="2257" fill="#084887"/>
<path d="M-125 143H1200" stroke="white" stroke-opacity="0.5" stroke-width="0.5"/>
<path d="M-108 837H1200" stroke="white" stroke-opacity="0.5" stroke-width="0.5"/>
<path d="M-125 523H1200" stroke="white" stroke-opacity="0.5" stroke-width="0.5"/>
<path d="M-125 1033H1200" stroke="white" stroke-opacity="0.5" stroke-width="0.5"/>
<path d="M-10.0057 1311.5C41 1155.5 273.931 1209 226.951 1366.7C200.37 1455.92 84.3715 1496.84 8.26822 1503.26C3.65565 1503.65 -41.9863 1511.54 -42.9288 1498.62C-44.3693 1478.89 -23.6163 1452.9 -10.0057 1443.34C25.6456 1418.29 75.8127 1422.61 115.797 1422.31C189.906 1421.77 263.992 1424.88 337.953 1429.76C558.086 1444.3 781.575 1465.82 1001.85 1446.48C1086.97 1439.01 1232.7 1434.29 1257.54 1320.68C1258.97 1314.11 1271.96 1256.48 1256.48 1284.76" stroke="white" stroke-width="0.5" stroke-linecap="round"/>
</g>
<defs>
<clipPath id="clip0_139_2344">
<rect width="1200" height="2257" fill="white"/>
</clipPath>
</defs>
</svg>
