<svg width="1209" height="215" viewBox="0 0 1209 215" fill="none" xmlns="http://www.w3.org/2000/svg">
<path d="M1 168.473C55.4405 168.473 109.808 171.625 164.26 171.371C295.091 170.761 429.445 146.734 553.571 105.359C601.599 89.3491 651.227 69.3803 694.612 42.8886C704.458 36.8759 718.096 28.3055 719.728 15.5176C720.739 7.60205 716.498 2.02257 708.136 1.02714C697.359 -0.255828 684.1 10.8425 676.579 16.4837C657.184 31.0297 636.686 47.9377 621.193 66.7174C604.54 86.9027 623.733 115.364 637.938 131.764C689.062 190.789 767.305 206.696 842.093 211.3C936.417 217.108 1087.19 219 1208.69 181" stroke="white" stroke-width="0.5" stroke-linecap="round"/>
</svg>
