<svg width="396" height="268" viewBox="0 0 396 268" fill="none" xmlns="http://www.w3.org/2000/svg">
<g clip-path="url(#clip0_139_2326)">
<g clip-path="url(#clip1_139_2326)">
<g clip-path="url(#clip2_139_2326)">
<path d="M0.107422 259.981L20.6196 135.973H62.677L59.6765 153.632H40.9351L26.3749 242.322H45.1163L42.1156 259.981H0.107422Z" fill="white"/>
<path d="M395.077 135.973L374.565 259.981H332.508L335.508 242.322H354.249L368.81 153.632H350.068L353.069 135.973H395.077Z" fill="white"/>
</g>
</g>
</g>
<g clip-path="url(#clip3_139_2326)">
<g clip-path="url(#clip4_139_2326)">
<g clip-path="url(#clip5_139_2326)">
<path d="M116.029 243.1L91.3785 201.36H85.8296L78.9058 243.1H54.5986L71.2944 142.532H95.6015L89.1196 181.571H92.999L130.614 142.532H161.01L114.458 190.017L146.327 243.1H116.029ZM238.456 194.387C236.623 205.223 233.022 214.373 227.653 221.837C222.317 229.269 215.819 234.9 208.158 238.73C200.531 242.56 192.33 244.474 183.557 244.474C174.292 244.474 166.271 242.413 159.495 238.287C152.718 234.163 147.791 228.156 144.714 220.266C141.67 212.376 141.08 202.801 142.946 191.539C144.714 180.703 148.266 171.537 153.603 164.04C158.971 156.544 165.502 150.864 173.195 147.001C180.921 143.105 189.204 141.157 198.042 141.157C207.242 141.157 215.213 143.236 221.957 147.394C228.733 151.551 233.644 157.591 236.689 165.513C239.733 173.436 240.322 183.06 238.456 194.387ZM214.149 191.539C215.164 185.221 215.164 179.901 214.149 175.58C213.167 171.259 211.235 168.001 208.355 165.808C205.474 163.582 201.725 162.469 197.109 162.469C192.002 162.469 187.387 163.729 183.262 166.25C179.17 168.738 175.749 172.372 172.999 177.151C170.249 181.898 168.334 187.644 167.254 194.387C166.141 200.771 166.108 206.091 167.155 210.347C168.236 214.602 170.249 217.811 173.195 219.971C176.141 222.099 179.89 223.163 184.441 223.163C189.515 223.163 194.081 221.936 198.141 219.48C202.201 217.025 205.588 213.44 208.305 208.726C211.055 204.012 213.003 198.283 214.149 191.539ZM222.418 267.308L229.489 224.146H236.462C239.049 222.574 241.536 220.38 243.926 217.565C246.316 214.717 248.625 210.723 250.85 205.583C253.076 200.411 255.188 193.585 257.185 185.106L267.399 142.532H336.195L322.691 224.146H333.495L326.375 267.26H303L306.928 243.1H249.721L245.793 267.308H222.418ZM264.354 224.146H299.317L309.482 162.273H285.863L280.559 185.106C279.086 191.49 277.466 197.121 275.697 201.999C273.963 206.876 272.13 211.132 270.198 214.766C268.299 218.367 266.352 221.493 264.354 224.146Z" fill="white"/>
</g>
</g>
</g>
<path d="M101.977 2.34082V108.194H76.7547V22.8085H37.4728V108.194H12.25V2.34082H101.977Z" fill="white"/>
<path d="M129.11 108.194H101.612L137.328 2.34082H171.388L207.104 108.194H179.607L154.746 29.0109H153.919L129.11 108.194ZM125.44 66.5348H182.915V85.9693H125.44V66.5348Z" fill="white"/>
<path d="M235.909 109.634C227.846 109.634 220.696 108.256 214.459 105.499C208.257 102.708 203.364 98.8662 199.78 93.9732C196.196 89.0809 194.371 83.4467 194.302 77.072H220.041C220.145 79.3805 220.886 81.4312 222.263 83.2226C223.642 84.9803 225.52 86.3586 227.898 87.3576C230.275 88.3573 232.98 88.8568 236.012 88.8568C239.044 88.8568 241.715 88.3229 244.024 87.2543C246.367 86.1514 248.193 84.6529 249.502 82.7575C250.812 80.8277 251.449 78.6225 251.414 76.1419C251.449 73.6606 250.743 71.4554 249.296 69.5263C247.848 67.5965 245.798 66.0973 243.145 65.0295C240.526 63.9609 237.425 63.427 233.842 63.427H223.556V45.2332H233.842C236.977 45.2332 239.734 44.7169 242.111 43.6828C244.523 42.6494 246.401 41.2022 247.745 39.3413C249.089 37.4461 249.744 35.2753 249.709 32.8288C249.744 30.4513 249.175 28.3665 248.004 26.5748C246.866 24.7485 245.264 23.3357 243.196 22.3365C241.164 21.3372 238.803 20.8376 236.116 20.8376C233.29 20.8376 230.723 21.3372 228.415 22.3365C226.14 23.3357 224.331 24.7485 222.987 26.5748C221.644 28.401 220.937 30.5202 220.868 32.9322H196.421C196.489 26.6265 198.247 21.0788 201.693 16.2892C205.138 11.4652 209.825 7.69208 215.751 4.96997C221.713 2.24785 228.5 0.886719 236.116 0.886719C243.696 0.886719 250.364 2.21336 256.118 4.86655C261.873 7.51982 266.352 11.1379 269.557 15.7207C272.761 20.269 274.364 25.4205 274.364 31.1749C274.398 37.136 272.451 42.0459 268.523 45.9055C264.629 49.7645 259.616 52.1425 253.482 53.0382V53.8651C261.683 54.8296 267.868 57.483 272.037 61.8246C276.241 66.1661 278.326 71.5931 278.291 78.1062C278.291 84.2391 276.482 89.6836 272.864 94.439C269.281 99.1592 264.284 102.881 257.875 105.603C251.501 108.291 244.178 109.634 235.909 109.634Z" fill="white"/>
<path d="M271.832 108.194V88.14L274.726 87.8295C278.448 87.382 281.48 85.8828 283.823 83.3327C286.166 80.7488 287.941 76.6482 289.147 71.0316C290.387 65.3805 291.18 57.7484 291.524 48.1344L293.23 2.34082H367.503V108.194H342.746V22.4984H316.851L315.196 57.5419C314.611 69.6364 313.078 79.4049 310.596 86.8474C308.116 94.2561 304.274 99.6655 299.071 103.077C293.902 106.488 286.959 108.194 278.241 108.194H271.832Z" fill="white"/>
<defs>
<clipPath id="clip0_139_2326">
<rect width="395.145" height="125.03" fill="white" transform="translate(0 132.604)"/>
</clipPath>
<clipPath id="clip1_139_2326">
<rect width="395.145" height="125.03" fill="white" transform="translate(0 132.604)"/>
</clipPath>
<clipPath id="clip2_139_2326">
<rect width="395.128" height="125.03" fill="white" transform="translate(0.0117188 132.604)"/>
</clipPath>
<clipPath id="clip3_139_2326">
<rect width="282.464" height="127.215" fill="white" transform="translate(54.0605 140.691)"/>
</clipPath>
<clipPath id="clip4_139_2326">
<rect width="282.464" height="127.215" fill="white" transform="translate(54.0605 140.691)"/>
</clipPath>
<clipPath id="clip5_139_2326">
<rect width="282.434" height="127.215" fill="white" transform="translate(54.0723 140.685)"/>
</clipPath>
</defs>
</svg>
